# xmcd CD database file
#
# Track frame offsets:
#	150
#	14757
#	29076
#	42448
#	56602
#	70758
#	84564
#	97208
#	111248
#	125469
#	140823
#	156115
#	168583
#	182044
#	195949
#	207681
#	221586
#	234696
#	248518
#	262456
#	274318
#	286482
#
# Disc length: 3998 seconds
#
# Revision: 0
# Processed by: cddbd v1.5.2PL0 Copyright (c) Steve Scherf et al.
# Submitted via: CDex 1.51
#
DISCID=650f9c16
DTITLE=Red Nichols - The Complete Brunswick Recordings - Volume 7
DYEAR=1900
DGENRE=Jazz
TTITLE0=Blue Again
TTITLE1=When Kentucky Bids The World "Good Morning"
TTITLE2=What Good Am I With You?
TTITLE3=We're Friends Again
TTITLE4="You Said It"
TTITLE5=Sweet And Hot
TTITLE6=The Peanut Vendor
TTITLE7=Sweet Rosita
TTITLE8=Things I Never Knew Till Now
TTITLE9=Teardrops And Kisses
TTITLE10=Were You Sincere?
TTITLE11=Keep A Song In Your Soul
TTITLE12=It's The Darn'dest Thing
TTITLE13=Singin' The Blues
TTITLE14=Love Is Like That
TTITLE15=Just A Crazy Song
TTITLE16=You Rascal You
TTITLE17=Moan, You Moaners!
TTITLE18=Slow But Sure
TTITLE19=Little Girl 1
TTITLE20=Little Girl 2
TTITLE21=How The Time Can Fly
EXTD=
EXTT0=
EXTT1=
EXTT2=
EXTT3=
EXTT4=
EXTT5=
EXTT6=
EXTT7=
EXTT8=
EXTT9=
EXTT10=
EXTT11=
EXTT12=
EXTT13=
EXTT14=
EXTT15=
EXTT16=
EXTT17=
EXTT18=
EXTT19=
EXTT20=
EXTT21=
PLAYORDER=
